<?xml version="1.0" encoding="UTF-8" standalone="no"?>
<!DOCTYPE svg PUBLIC "-//W3C//DTD SVG 1.1//EN" "http://www.w3.org/Graphics/SVG/1.1/DTD/svg11.dtd">
<svg width="100%" height="100%" viewBox="0 0 250 38" version="1.1" xmlns="http://www.w3.org/2000/svg" xmlns:xlink="http://www.w3.org/1999/xlink" xml:space="preserve" xmlns:serif="http://www.serif.com/" style="fill-rule:evenodd;clip-rule:evenodd;stroke-linejoin:round;stroke-miterlimit:2;">
    <rect id="Underline" x="0" y="0.25" width="250" height="37.5" style="fill:none;"/>
    <rect x="15" y="18" width="75" height="2" style="fill:#212121;"/>
    <rect x="155" y="18" width="75" height="2" style="fill:#212121;"/>
    <g>
        <g>
            <path d="M112.544,24.303c0.586,-0.585 0.586,-1.536 0,-2.121l-8.485,-8.485c-0.585,-0.586 -1.536,-0.586 -2.121,-0c-0.586,0.585 -0.586,1.536 -0,2.121l8.485,8.485c0.585,0.586 1.536,0.586 2.121,0Z" style="fill:#212121;"/>
            <path d="M112.544,24.303c0.586,-0.585 0.586,-1.536 0,-2.121l-8.485,-8.485c-0.585,-0.586 -1.536,-0.586 -2.121,-0c-0.586,0.585 -0.586,1.536 -0,2.121l8.485,8.485c0.585,0.586 1.536,0.586 2.121,0Z" style="fill:#212121;"/>
            <path d="M101.938,24.303c0.585,0.586 1.536,0.586 2.121,0l8.485,-8.485c0.586,-0.585 0.586,-1.536 0,-2.121c-0.585,-0.586 -1.536,-0.586 -2.121,-0l-8.485,8.485c-0.586,0.585 -0.586,1.536 -0,2.121Z" style="fill:#212121;"/>
            <path d="M101.938,24.303c0.585,0.586 1.536,0.586 2.121,0l8.485,-8.485c0.586,-0.585 0.586,-1.536 0,-2.121c-0.585,-0.586 -1.536,-0.586 -2.121,-0l-8.485,8.485c-0.586,0.585 -0.586,1.536 -0,2.121Z" style="fill:#212121;"/>
        </g>
        <g>
            <path d="M127.544,24.303c0.586,-0.585 0.586,-1.536 0,-2.121l-8.485,-8.485c-0.585,-0.586 -1.536,-0.586 -2.121,-0c-0.586,0.585 -0.586,1.536 -0,2.121l8.485,8.485c0.585,0.586 1.536,0.586 2.121,0Z" style="fill:#212121;"/>
            <path d="M127.544,24.303c0.586,-0.585 0.586,-1.536 0,-2.121l-8.485,-8.485c-0.585,-0.586 -1.536,-0.586 -2.121,-0c-0.586,0.585 -0.586,1.536 -0,2.121l8.485,8.485c0.585,0.586 1.536,0.586 2.121,0Z" style="fill:#212121;"/>
            <path d="M116.938,24.303c0.585,0.586 1.536,0.586 2.121,0l8.485,-8.485c0.586,-0.585 0.586,-1.536 0,-2.121c-0.585,-0.586 -1.536,-0.586 -2.121,-0l-8.485,8.485c-0.586,0.585 -0.586,1.536 -0,2.121Z" style="fill:#212121;"/>
            <path d="M116.938,24.303c0.585,0.586 1.536,0.586 2.121,0l8.485,-8.485c0.586,-0.585 0.586,-1.536 0,-2.121c-0.585,-0.586 -1.536,-0.586 -2.121,-0l-8.485,8.485c-0.586,0.585 -0.586,1.536 -0,2.121Z" style="fill:#212121;"/>
        </g>
        <g>
            <path d="M142.544,24.303c0.586,-0.585 0.586,-1.536 0,-2.121l-8.485,-8.485c-0.585,-0.586 -1.536,-0.586 -2.121,-0c-0.586,0.585 -0.586,1.536 -0,2.121l8.485,8.485c0.585,0.586 1.536,0.586 2.121,0Z" style="fill:#212121;"/>
            <path d="M142.544,24.303c0.586,-0.585 0.586,-1.536 0,-2.121l-8.485,-8.485c-0.585,-0.586 -1.536,-0.586 -2.121,-0c-0.586,0.585 -0.586,1.536 -0,2.121l8.485,8.485c0.585,0.586 1.536,0.586 2.121,0Z" style="fill:#212121;"/>
            <path d="M131.938,24.303c0.585,0.586 1.536,0.586 2.121,0l8.485,-8.485c0.586,-0.585 0.586,-1.536 0,-2.121c-0.585,-0.586 -1.536,-0.586 -2.121,-0l-8.485,8.485c-0.586,0.585 -0.586,1.536 -0,2.121Z" style="fill:#212121;"/>
            <path d="M131.938,24.303c0.585,0.586 1.536,0.586 2.121,0l8.485,-8.485c0.586,-0.585 0.586,-1.536 0,-2.121c-0.585,-0.586 -1.536,-0.586 -2.121,-0l-8.485,8.485c-0.586,0.585 -0.586,1.536 -0,2.121Z" style="fill:#212121;"/>
        </g>
    </g>
</svg>
