<?xml version="1.0" encoding="UTF-8" standalone="no"?>
<!DOCTYPE svg PUBLIC "-//W3C//DTD SVG 1.1//EN" "http://www.w3.org/Graphics/SVG/1.1/DTD/svg11.dtd">
<svg width="100%" height="100%" viewBox="0 0 960 175" version="1.1" xmlns="http://www.w3.org/2000/svg" xmlns:xlink="http://www.w3.org/1999/xlink" xml:space="preserve" style="fill-rule:evenodd;clip-rule:evenodd;stroke-linejoin:round;stroke-miterlimit:2;">
    <rect id="waves" x="0" y="-0" width="960" height="175" style="fill:none;"/>
    <clipPath id="_clip1">
        <rect x="0" y="-0" width="960" height="175"/>
    </clipPath>
    <g clip-path="url(#_clip1)">
        <path d="M0,7.126l12.267,4.225c12.266,4.111 36.8,12.562 61.333,13.818c24.533,1.371 49.067,-4.339 73.813,-7.194c24.64,-2.855 49.6,-2.855 74.24,-5.939c24.747,-2.969 49.28,-9.136 73.814,-5.71c24.533,3.426 49.066,16.445 73.6,19.072c24.533,2.626 49.066,-4.911 73.813,-8.794c24.64,-3.768 49.6,-3.768 74.24,-6.852c24.747,-2.969 49.28,-9.136 73.813,-9.707c24.534,-0.571 49.067,4.454 73.6,4.454c24.534,0 49.067,-5.025 73.814,-2.284c24.64,2.627 49.6,12.905 74.24,15.189c24.746,2.284 49.28,-3.426 73.813,-1.485c24.533,1.827 49.067,11.42 61.333,16.102l12.267,4.797l0,138.182l-960,-0l0,-167.874Z" style="fill:#b2dfdb;fill-opacity:0.75;fill-rule:nonzero;"/>
        <path d="M0,33.679l12.267,1.739c12.266,1.739 36.8,5.217 61.333,10.202c24.533,5.101 49.067,11.594 73.813,12.174c24.64,0.579 49.6,-4.754 74.24,-9.623c24.747,-4.87 49.28,-9.043 73.814,-10.782c24.533,-1.74 49.066,-1.044 73.6,2.086c24.533,3.131 49.066,8.464 73.813,10.783c24.64,2.318 49.6,1.623 74.24,-2.435c24.747,-4.058 49.28,-11.478 73.813,-10.898c24.534,0.579 49.067,9.159 73.6,14.492c24.534,5.449 49.067,7.768 73.814,7.188c24.64,-0.58 49.6,-4.058 74.24,-10.202c24.746,-6.261 49.28,-15.072 73.813,-17.971c24.533,-2.898 49.067,0.116 61.333,1.739l12.267,1.508l0,141.443l-960,0l0,-141.443Z" style="fill:#80cbc4;fill-opacity:0.8;fill-rule:nonzero;"/>
        <path d="M0,67.457l12.267,0.355c12.266,0.473 36.8,1.183 61.333,1.775c24.533,0.591 49.067,1.065 73.813,-0.71c24.64,-1.775 49.6,-5.798 74.24,-8.755c24.747,-2.958 49.28,-4.851 73.814,-2.367c24.533,2.603 49.066,9.702 73.6,11.24c24.533,1.657 49.066,-2.366 73.813,0c24.64,2.366 49.6,11.122 74.24,14.198c24.747,3.194 49.28,0.828 73.813,0.473c24.534,-0.473 49.067,1.183 73.6,-1.183c24.534,-2.366 49.067,-8.755 73.814,-12.896c24.64,-4.141 49.6,-6.034 74.24,-3.905c24.746,2.13 49.28,8.519 73.813,13.606c24.533,5.088 49.067,9.111 61.333,11.004l12.267,2.011l0,82.819l-960,0l0,-107.665Z" style="fill:#4db6ac;fill-opacity:0.85;fill-rule:nonzero;"/>
        <path d="M0,116.419l12.267,-3.49c12.266,-3.615 36.8,-10.595 61.333,-10.844c24.533,-0.249 49.067,6.481 73.813,8.351c24.64,1.87 49.6,-1.122 74.24,-3.116c24.747,-2.119 49.28,-3.365 73.814,-2.119c24.533,1.247 49.066,4.986 73.6,2.244c24.533,-2.618 49.066,-11.841 73.813,-12.464c24.64,-0.624 49.6,7.353 74.24,11.716c24.747,4.362 49.28,5.11 73.813,5.983c24.534,0.872 49.067,1.62 73.6,0.249c24.534,-1.496 49.067,-5.235 73.814,-7.728c24.64,-2.493 49.6,-3.739 74.24,-2.742c24.746,1.122 49.28,4.362 73.813,6.731c24.533,2.243 49.067,3.49 61.333,4.113l12.267,0.623l0,61.074l-960,-0l0,-58.581Z" style="fill:#26a69a;fill-opacity:0.9;fill-rule:nonzero;"/>
        <path d="M0,117.127l12.267,-0c12.266,-0 36.8,-0 61.333,4.218c24.533,4.086 49.067,12.521 73.813,12.521c24.64,0 49.6,-8.435 74.24,-6.59c24.747,1.713 49.28,13.576 73.814,14.631c24.533,1.186 49.066,-8.568 73.6,-14.236c24.533,-5.667 49.066,-7.513 73.813,-5.536c24.64,1.977 49.6,7.777 74.24,12.127c24.747,4.349 49.28,7.513 73.813,5.931c24.534,-1.582 49.067,-7.645 73.6,-12.522c24.534,-4.877 49.067,-8.304 73.814,-10.281c24.64,-1.977 49.6,-2.504 74.24,1.318c24.746,3.691 49.28,11.599 73.813,15.554c24.533,3.954 49.067,3.954 61.333,3.954l12.267,-0l0,36.906l-960,0l0,-57.995Z" style="fill:#009688;fill-rule:nonzero;"/>
    </g>
</svg>
